<svg width="117" height="34" viewBox="0 0 117 34" fill="none" xmlns="http://www.w3.org/2000/svg">
<path opacity="0.6" d="M17.3886 32.2545C22.5586 32.2545 26.7498 28.0714 26.7498 22.9112C26.7498 17.7511 22.5586 13.5679 17.3886 13.5679C12.2185 13.5679 8.0274 17.7511 8.0274 22.9112C8.0274 28.0714 12.2185 32.2545 17.3886 32.2545Z" fill="#4A4AC7"/>
<path d="M32.3874 33.7769H26.8058L26.3385 33.7695C26.0955 33.7657 25.9946 33.4598 26.1853 33.3143L27.4713 32.3143C27.4713 32.3143 27.475 32.3068 27.4713 32.2993C27.3143 32.068 27.161 31.8366 27.004 31.6053C26.4133 30.7247 25.8563 29.8889 25.2469 29.0792C24.8506 28.5493 24.3983 28.1501 23.9721 27.9486L23.3328 27.6426C21.6804 26.8516 19.9681 26.0344 18.2223 25.456C16.3942 24.8553 14.3604 25.0605 11.822 26.109C10.8388 26.5157 9.85554 26.9896 8.90596 27.4486C8.27042 27.7545 7.61618 28.0717 6.96195 28.3665C5.20486 29.1613 3.4702 29.8814 1.51123 30.0008C1.12617 30.0232 0.748581 29.9672 0.359778 29.8329C0.169116 29.7657 0.0307915 29.5978 0.00462208 29.3963C-0.0215473 29.1948 0.0644379 28.9971 0.236408 28.8814L0.610257 28.6239C1.01028 28.3516 1.42151 28.068 1.83274 27.7956C8.18443 23.5978 14.4838 18.4374 21.6617 11.553C22.858 10.4038 24.073 9.22838 25.2432 8.09032C26.8881 6.4933 28.5891 4.84405 30.2826 3.23957C32.593 1.05673 35.3221 -0.032829 38.4064 0.000753188C41.042 0.030604 43.0982 0.885083 44.5188 2.53434C45.2702 3.40748 46.1488 3.84031 47.3675 3.93733C47.9171 3.9821 48.4666 4.09031 49.0499 4.26942C49.2704 4.33658 49.42 4.53808 49.4274 4.76569C49.4349 4.9933 49.2966 5.20226 49.0835 5.28435L48.8218 5.38509C48.3881 5.54927 47.9769 5.70599 47.5844 5.90002C47.3862 6.00077 47.1843 6.09405 46.9787 6.19106C46.2834 6.51942 45.5656 6.86271 45.0011 7.32539C43.8347 8.28435 43.2926 9.62391 43.3898 11.303C43.6664 16.165 42.8701 19.9374 40.8775 23.1799C39.5279 25.3777 37.7447 27.0195 35.5763 28.0568C35.6586 28.1613 35.7408 28.2657 35.8231 28.3665C36.4175 29.1165 37.0306 29.8889 37.4381 30.8031C37.8905 31.8143 38.0624 32.5195 39.2587 32.6351C39.3223 32.6426 39.3821 32.6538 39.4382 32.6687C39.7111 32.7434 39.9317 33.0307 39.8756 33.3105C39.8233 33.5643 39.6064 33.7434 39.3485 33.7434H34.9221C34.7277 33.7434 34.5333 33.6575 34.4398 33.4896C34.2791 33.2098 34.3725 32.8889 34.6305 32.7396L35.3819 32.3068C35.3819 32.3068 35.3894 32.2993 35.3819 32.2919L35.1053 31.8665C34.4959 30.9225 33.8641 29.9448 33.236 28.9971L33.1837 28.9747C31.5425 29.2807 29.9387 29.1986 28.3125 29.0307C28.3984 29.1426 28.4844 29.2545 28.5704 29.3665C29.2209 30.2135 29.834 31.0157 30.5256 31.762C30.7275 31.9822 31.15 32.0045 31.464 32.262C31.778 32.5195 32.1594 32.7172 32.35 32.8068L32.6641 33.0083C32.9818 33.2657 32.7912 33.7807 32.3837 33.7695L32.3874 33.7769ZM28.0395 32.9449H30.9144C30.5481 32.7993 30.1892 32.624 29.92 32.3329C29.2022 31.5568 28.548 30.7023 27.9162 29.8777C27.6582 29.5419 27.3965 29.2023 27.1311 28.8665L26.7423 28.3777L27.3442 28.2098C27.3928 28.1948 27.4264 28.1836 27.4526 28.1762C27.5236 28.1538 27.6096 28.1239 27.7218 28.1389C29.5349 28.3404 31.3107 28.4971 33.0865 28.1575C33.3706 28.1016 33.7557 28.2695 33.9239 28.5232C34.5595 29.4822 35.1987 30.471 35.8119 31.4262L36.2605 32.1202C36.339 32.2434 36.3652 32.3963 36.3315 32.5381C36.2979 32.6799 36.2044 32.8031 36.0773 32.8777L35.9988 32.9225H38.3017C37.5876 32.512 37.0157 31.9001 36.6829 31.1538C36.3166 30.3366 35.7633 29.6351 35.1726 28.8963C35.0156 28.6986 34.8585 28.5008 34.7053 28.2993C34.6118 28.1762 34.5744 28.0195 34.6043 27.8665C34.6342 27.7135 34.7277 27.5829 34.8623 27.5045L34.8959 27.4859C34.9819 27.4374 35.0492 27.3963 35.1277 27.359C37.1914 26.3926 38.8886 24.8404 40.1709 22.7545C42.0701 19.6612 42.829 16.0418 42.5598 11.359C42.4477 9.40003 43.0907 7.82913 44.4739 6.69106C45.117 6.16121 45.8834 5.79927 46.6236 5.44479C46.8217 5.35151 47.0198 5.25823 47.2142 5.16121C47.446 5.04554 47.6816 4.94479 47.9171 4.85151C47.7115 4.8142 47.5059 4.78808 47.304 4.77315C45.8721 4.66121 44.7842 4.1239 43.8907 3.08285C42.6159 1.6015 40.8177 0.866426 38.3989 0.840307C35.5464 0.810456 33.008 1.82165 30.8621 3.85151C29.1723 5.45226 27.475 7.10151 25.8301 8.6948C24.6562 9.83286 23.4449 11.0082 22.2449 12.1612C15.0296 19.0717 8.69287 24.262 2.30005 28.4896C1.96359 28.7135 1.61965 28.9448 1.28692 29.1725V29.1799C3.17486 29.109 4.88709 28.3963 6.62548 27.609C7.26851 27.318 7.92274 27.0045 8.55081 26.6986C9.5116 26.2322 10.506 25.7545 11.5117 25.3366C13.2314 24.6277 15.8259 23.7844 18.4914 24.6612C20.2859 25.2545 22.0206 26.0829 23.6992 26.8851L24.3384 27.1911C25.0338 27.5232 25.5834 28.1277 25.9198 28.5754C26.5441 29.4038 27.1087 30.2471 27.7031 31.1389C27.9162 31.456 28.133 31.7769 28.3498 32.1016C28.4358 32.2247 28.462 32.3814 28.4283 32.5307C28.3947 32.6762 28.2975 32.8031 28.1629 32.8777L28.0395 32.9449ZM29.7817 27.0792C27.7629 27.0792 25.8824 26.4896 24.1627 25.3217C22.5739 24.2396 21.1645 23.5493 19.7326 23.1426C19.5644 23.0941 19.4186 22.9821 19.3588 22.818C19.2391 22.4784 19.4448 22.1538 19.7588 22.0941L20.2149 22.0045C20.8579 21.8814 21.5009 21.7545 22.1477 21.6277C23.1832 21.4262 24.3908 21.1314 25.4936 20.4859C25.774 20.3217 26.1441 20.1127 26.5404 19.9448C31.449 17.8739 34.5258 18.9262 35.924 19.7396C37.0194 20.3777 37.782 21.2732 37.868 22.0232C38.2942 25.6986 31.6958 26.8963 31.4154 26.9448C30.8621 27.0269 30.3163 27.068 29.7817 27.068V27.0792ZM21.0261 22.6986C22.1851 23.1389 23.3552 23.7695 24.63 24.6351C26.6264 25.9933 28.8658 26.4971 31.2808 26.1351C31.3332 26.1277 37.3745 25.0307 37.0381 22.1314C37.0007 21.8142 36.5521 21.0792 35.5016 20.4709C34.238 19.7359 31.4378 18.7918 26.8619 20.7209C26.5105 20.8702 26.1853 21.053 25.9123 21.2135C24.6936 21.9262 23.344 22.2508 22.3047 22.4523C21.8785 22.5344 21.4523 22.6202 21.0224 22.7023L21.0261 22.6986ZM15.7063 21.4224C15.4408 21.4224 15.1941 21.2247 15.1679 20.9224C15.153 20.7471 15.2427 20.5754 15.3773 20.4597C15.4969 20.359 15.5979 20.2694 15.6913 20.1799C17.0484 18.9038 18.4017 17.6277 19.7551 16.3478C22.772 13.5008 25.8937 10.5567 28.9779 7.67614C29.1648 7.50077 29.3518 7.32539 29.5387 7.15002C30.7275 6.03062 31.9575 4.8739 33.2996 3.90001C35.5203 2.28807 38.1148 1.9112 40.8027 2.81046L41.7523 3.12763L40.8588 3.57539C39.4718 4.26942 36.0474 5.90002 36.0137 5.91494C31.9238 7.98957 29.1648 10.7247 27.5872 14.2806C27.3928 14.7209 27.2432 15.1762 27.0825 15.6575C26.9853 15.9485 26.8881 16.2471 26.7797 16.5418C26.1067 18.359 24.8319 19.4821 22.9963 19.8814C21.2505 20.262 19.527 20.6277 17.7064 21.012L15.8259 21.4112C15.7885 21.4187 15.7511 21.4224 15.7137 21.4224H15.7063ZM37.9764 3.15374C36.4885 3.15374 35.0903 3.62763 33.7931 4.56793C32.4921 5.51196 31.2846 6.65002 30.1144 7.75077C29.9275 7.92614 29.7406 8.10525 29.5499 8.28062C26.4694 11.1612 23.3477 14.1053 20.3308 16.9523C19.1233 18.0941 17.912 19.2321 16.7007 20.3739L17.5307 20.1986C19.3513 19.8142 21.071 19.4523 22.8169 19.0717C24.3796 18.7321 25.4189 17.8105 25.9983 16.2545C26.103 15.9747 26.2002 15.6799 26.2937 15.4C26.4507 14.9224 26.6152 14.4262 26.8283 13.9485C28.4844 10.2097 31.3705 7.34032 35.6474 5.17241C35.681 5.15375 37.9166 4.09404 39.5055 3.32166C38.9896 3.21718 38.4811 3.16121 37.9802 3.16121L37.9764 3.15374Z" fill="#F7F7F7"/>
<path d="M71.1127 6.80824V10.7896H67.0564V27.3941H63.0563V10.7859H59V6.8045H71.1127V6.80824Z" fill="#F7F7F7"/>
<path d="M86.9227 8.4687C88.3172 9.86049 89.0126 11.5284 89.0126 13.4762V14.1889C89.0126 16.1478 88.3172 17.8195 86.9227 19.2113C85.5283 20.6031 83.8647 21.2822 81.9057 21.2822C79.9467 21.2822 78.2794 20.5919 76.8886 19.2113C75.4942 17.8195 74.7988 16.1478 74.7988 14.1889V13.4762C74.7988 11.5284 75.4942 9.85676 76.8886 8.4687C78.2831 7.08064 79.9542 6.38287 81.9057 6.38287C83.8572 6.38287 85.5395 7.0769 86.9227 8.4687ZM88.4069 27.3941H75.4119V23.4128H88.4069V27.3941ZM79.7037 11.2821C79.0906 11.8941 78.7841 12.6254 78.7841 13.4762V14.1889C78.7841 15.0508 79.0906 15.7859 79.7037 16.3978C80.3094 17.0023 81.0421 17.3045 81.902 17.3045C82.7618 17.3045 83.4983 17.0023 84.1002 16.3978C84.7133 15.7859 85.0199 15.0471 85.0199 14.1889V13.4762C85.0199 12.6254 84.7133 11.8941 84.1002 11.2821C83.4946 10.6777 82.7618 10.3754 81.902 10.3754C81.0421 10.3754 80.3056 10.6777 79.7037 11.2821Z" fill="#F7F7F7"/>
<path d="M98.0747 19.0881V27.3904H94.0857V6.80823H101.69C103.376 6.80823 104.826 7.41271 106.034 8.61793C107.234 9.8157 107.836 11.2635 107.836 12.9538C107.836 14.2448 107.462 15.4202 106.707 16.4799C105.963 17.5321 104.983 18.2784 103.765 18.7187L107.339 27.3941H103.021L99.5962 19.0918H98.0709L98.0747 19.0881ZM98.0747 10.7858V15.1105H101.69C102.277 15.1105 102.781 14.9015 103.204 14.4799C103.626 14.0582 103.851 13.5433 103.851 12.9575C103.851 12.3717 103.634 11.8567 103.204 11.4351C102.781 11.006 102.277 10.7896 101.69 10.7896H98.0747V10.7858Z" fill="#F7F7F7"/>
<path d="M112.905 6.80823H116.905V27.3941H112.905V6.80823Z" fill="#F7F7F7"/>
</svg>
